<svg xmlns="http://www.w3.org/2000/svg" width="230" height="56" fill="none"><g fill="#fff" clip-path="url(#a)"><path d="M72.17 36.85V30.6l6.89-11.05a.89.89 0 0 0 .02-.93.917.917 0 0 0-.8-.47h-1.15c-.31 0-.6.16-.77.42l-5.65 8.81-5.72-8.81a.924.924 0 0 0-.77-.42h-1.15c-.33 0-.64.18-.8.47-.16.29-.15.65.03.93l6.99 11.1v6.2c0 .51.41.92.92.92h1.04c.51 0 .92-.41.92-.92ZM89.99 37.8c5.59 0 10.13-4.42 10.13-9.85s-4.54-9.82-10.13-9.82c-5.59 0-10.13 4.41-10.13 9.82s4.54 9.85 10.13 9.85Zm0-16.8c3.97 0 7.2 3.12 7.2 6.95s-3.23 6.97-7.2 6.97-7.2-3.13-7.2-6.97S86.02 21 89.99 21ZM111.47 37.8c5.08 0 8.12-3.07 8.12-8.22V19.07c0-.51-.41-.92-.92-.92h-1.07c-.51 0-.92.41-.92.92v10.51c0 3.45-1.85 5.34-5.22 5.34-3.37 0-5.22-1.9-5.22-5.34V19.07c0-.51-.41-.92-.92-.92h-1.07c-.51 0-.92.41-.92.92v10.51c0 5.15 3.04 8.22 8.12 8.22h.02ZM135.9 31.12c2.48-1.06 3.83-3.22 3.83-6.2 0-4.24-2.92-6.77-7.81-6.77h-6.29c-.51 0-.92.41-.92.92v17.79c0 .51.41.92.92.92h1.07c.51 0 .92-.41.92-.92v-5.01h4.3c.39 0 .74-.01 1.06-.04l3.88 5.58c.17.25.45.39.75.39h1.27c.34 0 .66-.19.82-.5.16-.31.13-.67-.07-.95l-3.73-5.2v-.01Zm-3.96-2.15h-4.33v-7.94h4.33c3.26 0 4.91 1.32 4.91 3.92 0 3.32-2.67 4.02-4.91 4.02ZM163.17 37.77c.51 0 .92-.41.92-.92v-1.04c0-.51-.41-.92-.92-.92h-7V19.06c0-.51-.41-.92-.92-.92h-1.07c-.51 0-.92.41-.92.92v17.79c0 .51.41.92.92.92h8.99ZM185.67 27.95c0-5.42-4.54-9.82-10.13-9.82-5.59 0-10.13 4.41-10.13 9.82s4.54 9.85 10.13 9.85c5.59 0 10.13-4.42 10.13-9.85Zm-10.13 6.97c-3.97 0-7.2-3.13-7.2-6.97s3.23-6.95 7.2-6.95 7.2 3.12 7.2 6.95-3.23 6.97-7.2 6.97ZM204.99 27.21h-4.34c-.51 0-.92.41-.92.92v.97c0 .51.41.92.92.92h2.46v3.56a7.662 7.662 0 0 1-4.38 1.38c-4 0-7.25-3.14-7.25-7s3.25-6.97 7.25-6.97c1.85 0 3.68.68 5.01 1.88.19.17.43.25.69.23.25-.02.48-.14.64-.34l.64-.79a.91.91 0 0 0-.11-1.26 10.389 10.389 0 0 0-6.86-2.57c-5.6 0-10.16 4.41-10.16 9.82s4.53 9.85 10.1 9.85c2.52 0 5.04-.93 6.91-2.54.2-.17.32-.43.32-.69v-6.44c0-.51-.41-.92-.92-.92v-.01ZM229.4 27.95c0-5.42-4.54-9.82-10.13-9.82-5.59 0-10.13 4.41-10.13 9.82s4.54 9.85 10.13 9.85c5.59 0 10.13-4.42 10.13-9.85Zm-10.13 6.97c-3.97 0-7.2-3.13-7.2-6.97s3.23-6.95 7.2-6.95 7.2 3.12 7.2 6.95-3.23 6.97-7.2 6.97ZM27.33.63C12.26.63 0 12.89 0 27.96c0 15.07 12.26 27.33 27.33 27.33 15.07 0 27.33-12.26 27.33-27.33C54.66 12.89 42.4.63 27.33.63Zm1.47 51.68V36.8l7.77 7.77c.57.57 1.5.57 2.07 0 .57-.57.57-1.5 0-2.07l-9.84-9.84v-6.24l7.77 7.77c.57.57 1.5.57 2.07 0 .57-.57.57-1.5 0-2.07l-9.84-9.85v-6.24l7.77 7.77c.57.57 1.5.57 2.07 0 .57-.57.57-1.5 0-2.07l-10.2-10.2c-.55-.55-1.52-.55-2.07 0L16.02 21.88a1.467 1.467 0 1 0 2.08 2.07l7.77-7.77v6.24l-9.84 9.84a1.467 1.467 0 1 0 2.08 2.07l7.77-7.77v6.24l-9.84 9.84a1.467 1.467 0 1 0 2.08 2.07l7.77-7.77V52.3C13.12 51.54 2.96 40.91 2.96 27.95S13.88 3.56 27.33 3.56c13.45 0 24.4 10.94 24.4 24.4 0 13.46-10.16 23.59-22.93 24.35Z"/></g><defs><clipPath id="a"><path fill="#fff" d="M0 .46h229.4v55H0z"/></clipPath></defs></svg>