<svg id="Layer_1" data-name="Layer 1" xmlns="http://www.w3.org/2000/svg" viewBox="0 0 728.57 516.02"><defs><style>.cls-1,.cls-11,.cls-12,.cls-13,.cls-14,.cls-15,.cls-16,.cls-17,.cls-18,.cls-2,.cls-3{fill:#231f20;}.cls-1,.cls-10,.cls-15,.cls-16{stroke:#231f20;stroke-miterlimit:10;}.cls-1{stroke-width:1.54px;}.cls-3{font-size:21px;font-family:MyriadPro-Regular, Myriad Pro;}.cls-4{letter-spacing:-0.03em;}.cls-5{letter-spacing:-0.01em;}.cls-6{letter-spacing:0em;}.cls-7{letter-spacing:-0.02em;}.cls-8{letter-spacing:0em;}.cls-9{letter-spacing:0.02em;}.cls-10{fill:#f0efef;stroke-width:0.25px;}.cls-11{font-size:20px;}.cls-11,.cls-12,.cls-13,.cls-14,.cls-17{font-family:CourierNewPS-BoldMT, Courier New;font-weight:700;}.cls-12{font-size:22px;}.cls-13{font-size:13px;}.cls-14{font-size:23px;}.cls-16{stroke-width:2px;}.cls-17{font-size:15px;}.cls-18{font-size:14px;font-family:Georgia;}</style></defs><rect class="cls-1" x="74.45" y="376" width="209.22" height="0.97" transform="translate(358.12 752.96) rotate(180)"/><rect class="cls-2" x="147.19" y="152.12" width="58.65" height="3.03"/><polygon class="cls-2" points="231.25 152.56 205.83 141.69 205.83 163.44 231.25 152.56"/><text class="cls-3" transform="translate(178.18 34.27)">Upload <tspan class="cls-4" x="68.44" y="0">F</tspan><tspan x="78.12" y="0">iles </tspan><tspan class="cls-5" x="111.28" y="0">t</tspan><tspan class="cls-6" x="118.1" y="0">o the M</tspan><tspan class="cls-7" x="184.54" y="0">C</tspan><tspan x="196.28" y="0">C Github </tspan><tspan class="cls-8" x="277.97" y="0">R</tspan><tspan x="289.35" y="0">eposi</tspan><tspan class="cls-5" x="336.58" y="0">t</tspan><tspan x="343.41" y="0">o</tspan><tspan class="cls-9" x="354.94" y="0">r</tspan><tspan x="362.33" y="0">y</tspan></text><rect class="cls-10" x="21.83" y="125.75" width="129.71" height="53.62"/><text class="cls-11" transform="translate(26.67 159.41)">git status</text><rect class="cls-2" x="356.61" y="153.2" width="58.65" height="3.03"/><polygon class="cls-2" points="440.67 153.64 415.25 142.76 415.25 164.52 440.67 153.64"/><polygon class="cls-2" points="410.13 375.92 435.55 386.8 435.55 365.04 410.13 375.92"/><polygon class="cls-2" points="134.48 375.92 159.9 386.8 159.9 365.04 134.48 375.92"/><polygon class="cls-2" points="76.97 244.42 66.09 269.83 87.84 269.83 76.97 244.42"/><rect class="cls-2" x="570.38" y="151.83" width="58.65" height="3.03"/><polygon class="cls-2" points="654.43 152.27 629.02 141.39 629.02 163.15 654.43 152.27"/><polygon class="cls-2" points="624.79 375.07 650.2 385.95 650.2 364.19 624.79 375.07"/><rect class="cls-10" x="231.25" y="126.83" width="129.71" height="53.62"/><text class="cls-12" transform="translate(238.69 159.75)">git add .</text><rect class="cls-10" x="492.47" y="347.41" width="129.71" height="53.62"/><text class="cls-13" transform="translate(500.81 369.64)">git push origin <tspan x="19.5" y="15.6">Winter2020</tspan></text><rect class="cls-10" x="280.42" y="347.41" width="129.71" height="53.62"/><text class="cls-14" transform="translate(290.07 381.97)">git pull</text><rect class="cls-2" x="566.03" y="151.97" width="132.61" height="2.75"/><rect class="cls-2" x="16.58" y="315.21" width="120.77" height="2.75" transform="translate(393.55 239.61) rotate(90)"/><rect class="cls-2" x="588.8" y="263.48" width="222.43" height="2.75" transform="translate(964.87 -435.15) rotate(90)"/><rect class="cls-15" x="649.59" y="374.22" width="50.42" height="1.7" transform="translate(1349.6 750.14) rotate(180)"/><rect class="cls-16" x="427.07" y="374.35" width="65.2" height="0.72" transform="translate(919.35 749.42) rotate(180)"/><rect class="cls-10" x="440.67" y="125.31" width="129.71" height="53.62"/><text class="cls-17" transform="translate(445.24 145.81)">git commit -m <tspan x="9" y="18">“&lt;message&gt;”</tspan></text><text class="cls-18" transform="translate(41.23 198.01)">Get the current <tspan x="-11.15" y="16.8">status of your local</tspan><tspan x="13.51" y="33.6">repository.</tspan></text><text class="cls-18" transform="translate(233.78 198.01)">Add or stage all files <tspan x="14.44" y="16.8">in your local git </tspan><tspan x="28.83" y="33.6">repository.</tspan></text><text class="cls-18" transform="translate(454.99 198.01)">Saves the staged <tspan x="-2.06" y="16.8">files to your local</tspan><tspan x="17.04" y="33.6">repository.</tspan></text><text class="cls-18" transform="translate(505.09 420.14)">Get changes from <tspan x="23.94" y="16.8">your local</tspan><tspan x="3.18" y="33.6">repository to the </tspan><tspan x="-1.06" y="50.4">remote repository </tspan><tspan x="8.99" y="67.2">(Winter2020).</tspan></text><text class="cls-18" transform="translate(296.26 420.14)">Get the changes <tspan x="-1.31" y="16.8">from the remote</tspan><tspan x="17.41" y="33.6">repository </tspan><tspan x="-8.39" y="50.4">(Winter2020) into </tspan><tspan x="13.86" y="67.2">the branch.</tspan></text></svg>